<svg t="1743948304371" class="icon" viewBox="0 0 1024 1024" version="1.1" xmlns="http://www.w3.org/2000/svg" p-id="1059" width="32" height="32"><path d="M0 1024h1024V0H0v1024z" fill="#FFFFFF" p-id="1060"></path><path d="M320 277.333333h106.666667v21.333334h-106.666667v-21.333334z m-42.666667 42.666667v-21.333333h42.666667v21.333333h-42.666667z m-21.333333 21.333333v-21.333333h21.333333v21.333333h-21.333333z m-21.333333 21.333334v-21.333334h21.333333v21.333334h-21.333333z m0 106.666666h-21.333334v-106.666666h21.333334v106.666666z m21.333333 106.666667h-21.333333v-106.666667h21.333333v106.666667z m21.333333 42.666667h-21.333333v-42.666667h21.333333v42.666667z m21.333334 85.333333h-21.333334v-85.333333h21.333334v85.333333z m21.333333 42.666667h-21.333333v-42.666667h21.333333v42.666667z m21.333333 21.333333h-21.333333v-21.333333h21.333333v21.333333z m85.333334 0v21.333333h-85.333334v-21.333333h85.333334z m64-21.333333v21.333333h-64v-21.333333h64z m21.333333-21.333334h-21.333333v21.333334h42.666666v21.333333h64v21.333333h85.333334v-21.333333h21.333333v-21.333333h21.333333v-42.666667h21.333334v-85.333333h21.333333v-42.666667h21.333333v-106.666667h21.333334v-106.666666h-21.333334v-21.333334h-21.333333v-21.333333h-21.333333v-21.333333h-42.666667v-21.333334h-106.666667v21.333334h-170.666666v21.333333h170.666666v-21.333333h106.666667v21.333333h42.666667v21.333333h21.333333v21.333334h21.333333v106.666666h-21.333333v106.666667h-21.333333v42.666667h-21.333334v85.333333h-21.333333v42.666667h-21.333333v21.333333h-85.333334v-21.333333h-64v-21.333334h-21.333333z" fill="#D98B8B" p-id="1061"></path><path d="M426.666667 298.666667h-106.666667v21.333333h-42.666667v21.333333h-21.333333v21.333334h-21.333333v106.666666h21.333333v106.666667h21.333333v42.666667h21.333334v85.333333h21.333333v42.666667h21.333333v21.333333h85.333334v-21.333333h64v-21.333334h42.666666v21.333334h64v21.333333h85.333334v-21.333333h21.333333v-42.666667h21.333333v-85.333333h21.333334v-42.666667h21.333333v-106.666667h21.333333v-106.666666h-21.333333v-21.333334h-21.333333v-21.333333h-42.666667v-21.333333h-106.666667v21.333333h-170.666666v-21.333333z" fill="#D16262" p-id="1062"></path><path d="M448 320h-64v42.666667h-21.333333v170.666666h21.333333v128h21.333333v64h21.333334v21.333334h42.666666v-21.333334h85.333334v21.333334h42.666666v-21.333334h21.333334v-64h21.333333v-128h21.333333v-170.666666h-21.333333v-42.666667h-64v21.333333h42.666667v21.333334h21.333333v170.666666h-21.333333v128h-21.333334v64h-42.666666v-21.333333h-85.333334v21.333333h-42.666666v-64h-21.333334v-128h-21.333333v-170.666666h21.333333v-21.333334h42.666667v-21.333333z" fill="#D98B8B" p-id="1063"></path><path d="M554.666667 128h-85.333334v21.333333h-21.333333v128h21.333333v21.333334h21.333334v21.333333h21.333333v-21.333333h21.333333v-21.333334h-21.333333V192h42.666667V170.666667h21.333333V149.333333h-21.333333V128z m-64 149.333333h-21.333334V149.333333h85.333334v21.333334h-64v106.666666z m0 0h21.333333v21.333334h-21.333333v-21.333334z" fill="#D0DBB8" p-id="1064"></path><path d="M554.666667 149.333333h-85.333334v128h21.333334V170.666667h64V149.333333zM512 277.333333h-21.333333v21.333334h21.333333v-21.333334z" fill="#7C9662" p-id="1065"></path><path d="M469.333333 298.666667h64v21.333333h-64z" fill="#7C9662" p-id="1066"></path><path d="M469.333333 298.666667h-21.333333v21.333333h21.333333v-21.333333z m85.333334 0h-21.333334v21.333333h21.333334v-21.333333z" fill="#D0DBB8" p-id="1067"></path><path d="M426.666667 298.666667h-42.666667v21.333333h-21.333333v42.666667h-21.333334v170.666666h21.333334v128h21.333333v64h21.333333v21.333334h21.333334v21.333333h42.666666v-21.333333h21.333334v-21.333334h-21.333334v21.333334h-42.666666v-21.333334h-21.333334v-64h-21.333333v-128h-21.333333v-170.666666h21.333333v-42.666667h42.666667v-21.333333z m170.666666 0h-21.333333v21.333333h-128v21.333333h128v-21.333333h64v42.666667h21.333333v170.666666h-21.333333v128h-21.333333v64h-21.333334v21.333334h-42.666666v-21.333334h-21.333334v21.333334h21.333334v21.333333h42.666666v-21.333333h21.333334v-21.333334h21.333333v-64h21.333333v-128h21.333334v-170.666666h-21.333334v-42.666667h-21.333333v-21.333333h-42.666667z m-149.333333 106.666666h-21.333333v85.333334h21.333333v-85.333334z" fill="#CC5050" p-id="1068"></path><path d="M448 405.333333h-21.333333v85.333334h21.333333v-85.333334z m42.666667 64h-21.333334v85.333334h21.333334v-85.333334z" fill="#D98B8B" p-id="1069"></path><path d="M554.666667 128h21.333333v64h-21.333333z" fill="#D0DBB8" p-id="1070"></path></svg>